<?xml version="1.0" standalone="no"?>
<!DOCTYPE svg PUBLIC "-//W3C//DTD SVG 20010904//EN"
 "http://www.w3.org/TR/2001/REC-SVG-20010904/DTD/svg10.dtd">
<svg version="1.0" xmlns="http://www.w3.org/2000/svg"
 width="258.000000pt" height="195.000000pt" viewBox="0 0 258.000000 195.000000"
 preserveAspectRatio="xMidYMid meet">
<metadata>
Created by potrace 1.16, written by Peter Selinger 2001-2019
</metadata>
<g transform="translate(0.000000,195.000000) scale(0.100000,-0.100000)"
fill="#fff" stroke="none">
<path d="M860 1934 c-113 -24 -272 -72 -370 -112 l-94 -38 -59 -95 c-168 -270
-278 -580 -316 -889 -12 -89 -15 -420 -5 -456 7 -28 167 -132 314 -205 115
-57 296 -129 324 -129 15 0 66 69 119 162 30 52 32 58 16 58 -21 0 -199 89
-199 99 0 6 11 18 24 27 24 15 30 14 117 -21 351 -139 767 -139 1118 0 87 35
93 36 117 21 13 -9 24 -21 24 -27 0 -10 -178 -99 -199 -99 -6 0 -11 -3 -11 -6
0 -9 50 -93 93 -158 47 -69 41 -69 216 0 133 53 247 112 378 196 81 52 93 64
99 94 12 64 -3 443 -21 544 -52 289 -161 570 -313 806 l-52 81 -103 41 c-111
43 -207 72 -339 101 l-85 18 -34 -69 -33 -68 -76 7 c-97 10 -343 10 -440 0
l-75 -7 -35 68 -35 69 -65 -13z m60 -804 c118 -33 197 -174 170 -304 -23 -114
-105 -196 -204 -204 -69 -6 -118 11 -169 57 -193 174 -38 518 203 451z m861
-2 c51 -15 114 -69 142 -122 31 -58 31 -193 0 -251 -95 -178 -319 -180 -408
-5 -33 66 -41 135 -22 201 41 140 163 215 288 177z"/>
</g>
</svg>
